<?xml version="1.0" standalone="no"?>
<!DOCTYPE svg PUBLIC "-//W3C//DTD SVG 20010904//EN"
 "http://www.w3.org/TR/2001/REC-SVG-20010904/DTD/svg10.dtd">
<svg version="1.0" xmlns="http://www.w3.org/2000/svg"
 width="512.000000pt" height="512.000000pt" viewBox="0 0 512.000000 512.000000"
 preserveAspectRatio="xMidYMid meet">
<metadata>
Created by potrace 1.14, written by Peter Selinger 2001-2017
</metadata>
<g transform="translate(0.000000,512.000000) scale(0.100000,-0.100000)"
fill="#000000" stroke="none">
<path d="M2086 4590 c-43 -39 -83 -70 -87 -70 -13 0 -142 -166 -169 -217 -14
-27 -60 -108 -104 -181 -69 -116 -95 -148 -218 -274 -77 -79 -144 -152 -149
-163 -5 -11 -25 -40 -44 -65 -19 -25 -41 -56 -47 -70 -7 -14 -15 -27 -19 -30
-10 -9 -79 -120 -74 -120 3 0 -1 -10 -9 -22 -7 -13 -19 -41 -26 -63 -7 -22
-30 -67 -50 -100 -99 -162 -150 -253 -150 -266 1 -21 20 -42 75 -79 103 -69
212 -156 285 -225 70 -66 153 -132 248 -196 37 -25 39 -30 46 -95 12 -115 16
-1031 6 -1159 -17 -206 -26 -479 -17 -513 4 -18 24 -51 43 -72 29 -31 44 -40
82 -45 26 -3 103 -17 172 -30 271 -51 321 -58 397 -51 113 10 132 25 148 110
10 48 -28 127 -92 193 -44 45 -60 54 -139 78 -77 23 -95 33 -133 73 -57 61
-94 145 -125 285 -26 115 -47 317 -46 431 0 34 -2 170 -6 304 -3 133 -4 248
-1 256 4 11 47 -10 163 -80 86 -52 162 -94 169 -94 6 0 20 -9 31 -21 10 -11
33 -27 50 -34 18 -7 50 -29 71 -49 22 -19 60 -44 85 -55 25 -11 65 -32 89 -47
88 -56 182 -104 204 -104 17 0 49 39 145 176 68 96 133 183 145 192 25 20 95
119 95 135 0 6 3 7 8 3 4 -4 8 -177 8 -384 2 -454 10 -892 19 -984 9 -89 27
-105 135 -124 46 -8 112 -23 149 -35 55 -17 101 -22 284 -26 196 -5 219 -4
236 11 35 31 35 64 1 132 -50 103 -154 179 -330 244 -47 17 -95 38 -108 46
-34 22 -71 89 -82 145 -6 28 -12 223 -15 432 -3 210 -10 479 -14 598 -9 232
-4 281 38 349 11 19 21 41 21 49 0 8 7 23 17 33 9 10 37 52 62 93 60 97 160
241 230 332 177 228 180 236 121 284 -24 19 -62 51 -86 73 -44 39 -122 96
-244 180 -36 25 -105 74 -155 110 -49 36 -128 88 -175 115 -47 28 -110 69
-140 90 -30 22 -92 65 -137 95 -46 31 -140 103 -210 159 -71 57 -156 120 -190
140 -34 21 -74 52 -88 69 -43 50 -272 198 -307 198 -7 0 -49 -32 -92 -70z
m913 -983 c-59 -53 -102 -125 -110 -184 -8 -58 -3 -93 15 -93 6 0 25 -7 41
-16 42 -23 140 -22 190 1 104 50 158 89 176 129 10 23 19 50 19 61 0 17 2 17
14 5 25 -26 66 -112 66 -138 0 -53 -112 -128 -285 -189 -95 -33 -139 -41 -282
-49 -138 -8 -263 8 -289 37 -19 21 -7 48 28 67 13 7 41 43 63 80 21 37 51 82
65 100 38 49 179 164 230 188 91 43 106 43 59 1z m-959 -225 c0 -4 -17 -14
-37 -21 -101 -36 -183 -147 -183 -248 0 -45 4 -54 31 -77 32 -27 39 -28 174
-26 65 1 88 6 121 25 68 40 144 146 130 182 -10 24 3 14 18 -15 24 -47 31
-144 12 -180 -33 -65 -213 -158 -370 -193 -97 -21 -101 -21 -179 -5 -139 30
-287 114 -287 164 0 11 26 45 62 78 34 33 92 88 128 124 87 87 221 158 378
199 1 1 2 -3 2 -7z"/>
</g>
</svg>
